<svg xmlns="http://www.w3.org/2000/svg" width="224.88" viewBox="0 0 224.88 75" height="75" version="1.0"><defs><clipPath id="a"><path d="M 5.351562 20.054688 L 23 20.054688 L 23 49 L 5.351562 49 Z M 5.351562 20.054688"/></clipPath><clipPath id="b"><path d="M 22 20.054688 L 40 20.054688 L 40 49 L 22 49 Z M 22 20.054688"/></clipPath></defs><g clip-path="url(#a)"><path fill="#9E58E9" d="M 7.25 20.222656 C 13.59375 19.085938 20.03125 27.238281 22.652344 31.871094 L 22.652344 41.902344 C 21.019531 46.71875 18.277344 48.371094 15.609375 48.445312 C 11.304688 48.566406 7.917969 43.625 9.632812 39.675781 C 10.621094 37.394531 12.640625 36.238281 14.027344 35.882812 C 7.246094 35.601562 5.460938 27.945312 5.355469 22.785156 C 5.332031 21.574219 6.058594 20.4375 7.25 20.222656 Z M 7.25 20.222656"/></g><g clip-path="url(#b)"><path fill="#7629C8" d="M 38.058594 20.222656 C 31.714844 19.085938 25.273438 27.238281 22.652344 31.871094 L 22.652344 41.902344 C 24.285156 46.71875 27.03125 48.371094 29.695312 48.445312 C 34 48.566406 37.386719 43.625 35.671875 39.675781 C 34.683594 37.394531 32.664062 36.238281 31.28125 35.882812 C 38.058594 35.601562 39.847656 27.945312 39.949219 22.785156 C 39.976562 21.574219 39.246094 20.4375 38.058594 20.222656 Z M 38.058594 20.222656"/></g><g fill="#252A30"><g><g><path d="M 1.96875 0 L 1.96875 -20.28125 L 15.078125 -20.28125 L 15.078125 -17.296875 L 5.6875 -17.296875 L 5.6875 -11.625 L 13.28125 -11.625 L 13.28125 -8.6875 L 5.6875 -8.6875 L 5.6875 0 Z M 1.96875 0" transform="translate(46.371 45.513)"/></g></g></g><g fill="#252A30"><g><g><path d="M 1.96875 0 L 1.96875 -20.28125 L 5.6875 -20.28125 L 5.6875 -2.890625 L 14.671875 -2.890625 L 14.671875 0 Z M 1.96875 0" transform="translate(62.337 45.513)"/></g></g></g><g fill="#252A30"><g><g><path d="M 9.796875 0.34375 C 8.304688 0.34375 6.960938 0.0507812 5.765625 -0.53125 C 4.566406 -1.125 3.613281 -2.019531 2.90625 -3.21875 C 2.207031 -4.414062 1.859375 -5.929688 1.859375 -7.765625 L 1.859375 -20.28125 L 5.5625 -20.28125 L 5.5625 -7.734375 C 5.5625 -6.148438 5.941406 -4.972656 6.703125 -4.203125 C 7.472656 -3.429688 8.535156 -3.046875 9.890625 -3.046875 C 11.222656 -3.046875 12.273438 -3.429688 13.046875 -4.203125 C 13.816406 -4.972656 14.203125 -6.148438 14.203125 -7.734375 L 14.203125 -20.28125 L 17.90625 -20.28125 L 17.90625 -7.765625 C 17.90625 -5.929688 17.535156 -4.414062 16.796875 -3.21875 C 16.066406 -2.019531 15.085938 -1.125 13.859375 -0.53125 C 12.640625 0.0507812 11.285156 0.34375 9.796875 0.34375 Z M 9.796875 0.34375" transform="translate(78.304 45.513)"/></g></g></g><g fill="#252A30"><g><g><path d="M 0.984375 0 L 7.328125 -10.265625 L 0.90625 -20.28125 L 5.15625 -20.28125 L 9.703125 -13.21875 L 13.890625 -20.28125 L 18.0625 -20.28125 L 11.703125 -10.09375 L 18.203125 0 L 13.9375 0 L 9.328125 -7.15625 L 5.15625 0 Z M 0.984375 0" transform="translate(98.037 45.513)"/></g></g></g><g fill="#252A30"><g><g><path d="M 8.890625 0.34375 C 7.410156 0.34375 6.097656 0.0859375 4.953125 -0.421875 C 3.816406 -0.929688 2.921875 -1.664062 2.265625 -2.625 C 1.609375 -3.582031 1.269531 -4.742188 1.25 -6.109375 L 5.15625 -6.109375 C 5.195312 -5.171875 5.539062 -4.375 6.1875 -3.71875 C 6.832031 -3.070312 7.726562 -2.75 8.875 -2.75 C 9.851562 -2.75 10.632812 -2.984375 11.21875 -3.453125 C 11.800781 -3.929688 12.09375 -4.566406 12.09375 -5.359375 C 12.09375 -6.191406 11.832031 -6.835938 11.3125 -7.296875 C 10.800781 -7.765625 10.117188 -8.144531 9.265625 -8.4375 C 8.421875 -8.726562 7.515625 -9.035156 6.546875 -9.359375 C 4.984375 -9.898438 3.789062 -10.59375 2.96875 -11.4375 C 2.144531 -12.289062 1.734375 -13.425781 1.734375 -14.84375 C 1.710938 -16.039062 2 -17.066406 2.59375 -17.921875 C 3.1875 -18.785156 3.992188 -19.453125 5.015625 -19.921875 C 6.035156 -20.398438 7.210938 -20.640625 8.546875 -20.640625 C 9.898438 -20.640625 11.09375 -20.394531 12.125 -19.90625 C 13.164062 -19.425781 13.976562 -18.75 14.5625 -17.875 C 15.15625 -17.007812 15.46875 -15.976562 15.5 -14.78125 L 11.53125 -14.78125 C 11.507812 -15.5 11.234375 -16.128906 10.703125 -16.671875 C 10.171875 -17.222656 9.4375 -17.5 8.5 -17.5 C 7.6875 -17.519531 7.003906 -17.320312 6.453125 -16.90625 C 5.898438 -16.5 5.625 -15.894531 5.625 -15.09375 C 5.625 -14.425781 5.832031 -13.890625 6.25 -13.484375 C 6.675781 -13.085938 7.253906 -12.753906 7.984375 -12.484375 C 8.722656 -12.222656 9.566406 -11.9375 10.515625 -11.625 C 11.523438 -11.269531 12.441406 -10.859375 13.265625 -10.390625 C 14.097656 -9.929688 14.765625 -9.320312 15.265625 -8.5625 C 15.773438 -7.800781 16.03125 -6.820312 16.03125 -5.625 C 16.03125 -4.5625 15.757812 -3.570312 15.21875 -2.65625 C 14.675781 -1.75 13.875 -1.019531 12.8125 -0.46875 C 11.75 0.0703125 10.441406 0.34375 8.890625 0.34375 Z M 8.890625 0.34375" transform="translate(117.132 45.513)"/></g></g></g><g fill="#252A30"><g><g><path d="M 6.703125 0 L 6.703125 -17.296875 L 0.78125 -17.296875 L 0.78125 -20.28125 L 16.34375 -20.28125 L 16.34375 -17.296875 L 10.40625 -17.296875 L 10.40625 0 Z M 6.703125 0" transform="translate(134.432 45.513)"/></g></g></g><g fill="#252A30"><g><g><path d="M 0.671875 0 L 8.09375 -20.28125 L 12.265625 -20.28125 L 19.6875 0 L 15.734375 0 L 14.109375 -4.703125 L 6.203125 -4.703125 L 4.546875 0 Z M 7.21875 -7.59375 L 13.09375 -7.59375 L 10.140625 -16.03125 Z M 7.21875 -7.59375" transform="translate(151.557 45.513)"/></g></g></g><g fill="#252A30"><g><g><path d="M 11.15625 0.34375 C 9.113281 0.34375 7.359375 -0.09375 5.890625 -0.96875 C 4.421875 -1.851562 3.285156 -3.082031 2.484375 -4.65625 C 1.691406 -6.226562 1.296875 -8.046875 1.296875 -10.109375 C 1.296875 -12.179688 1.691406 -14.007812 2.484375 -15.59375 C 3.285156 -17.175781 4.421875 -18.410156 5.890625 -19.296875 C 7.359375 -20.191406 9.113281 -20.640625 11.15625 -20.640625 C 13.59375 -20.640625 15.585938 -20.035156 17.140625 -18.828125 C 18.703125 -17.617188 19.675781 -15.921875 20.0625 -13.734375 L 15.96875 -13.734375 C 15.71875 -14.835938 15.179688 -15.703125 14.359375 -16.328125 C 13.535156 -16.960938 12.445312 -17.28125 11.09375 -17.28125 C 9.226562 -17.28125 7.757812 -16.640625 6.6875 -15.359375 C 5.625 -14.085938 5.09375 -12.335938 5.09375 -10.109375 C 5.09375 -7.890625 5.625 -6.144531 6.6875 -4.875 C 7.757812 -3.613281 9.226562 -2.984375 11.09375 -2.984375 C 12.445312 -2.984375 13.535156 -3.273438 14.359375 -3.859375 C 15.179688 -4.453125 15.71875 -5.269531 15.96875 -6.3125 L 20.0625 -6.3125 C 19.675781 -4.226562 18.703125 -2.597656 17.140625 -1.421875 C 15.585938 -0.242188 13.59375 0.34375 11.15625 0.34375 Z M 11.15625 0.34375" transform="translate(171.87 45.513)"/></g></g></g><g fill="#252A30"><g><g><path d="M 1.96875 0 L 1.96875 -20.28125 L 5.6875 -20.28125 L 5.6875 -12.09375 L 13.1875 -20.28125 L 17.765625 -20.28125 L 10.296875 -12.234375 L 17.96875 0 L 13.421875 0 L 7.625 -9.390625 L 5.6875 -7.28125 L 5.6875 0 Z M 1.96875 0" transform="translate(193.225 45.513)"/></g></g></g></svg>